PathFileType	4	(X/Y/Z)	C:/Users/beibeiliu/ov580/test_trc\sequence.5_training_dense_left.trc
DataRate	CameraRate	NumFrames	NumMarkers	Units	OrigDataRate	OrigDataStartFrame	OrigNumFrames
120	120	10	19	mm	120	1	336
Frame#	Time	ThumbCMC			ThumbMCP			ThumbIP			ThumbTip			IndexMCP			IndexPIP			IndexTip			MiddleMCP			MiddlePIP			MiddleTip			RingMCP			RingPIP			RingTip			PinkyMCP			PinkyPIP			PinkyTip			BackHand1			BackHand2			BackHand3	
		X0	Y0	Z0	X1	Y1	Z1	X2	Y2	Z2	X3	Y3	Z3	X4	Y4	Z4	X5	Y5	Z5	X6	Y6	Z6	X7	Y7	Z7	X8	Y8	Z8	X9	Y9	Z9	X10	Y10	Z10	X11	Y11	Z11	X12	Y12	Z12	X13	Y13	Z13	X14	Y14	Z14	X15	Y15	Z15	X16	Y16	Z16	X17	Y17	Z17	X18	Y18	Z18	
0	0	-185.86	-1.51264	27.8782	-170.936	21.7289	10.932	-158.108	33.8077	-7.799	-133.85	35.287	-23.1196	-165.706	-11.8911	-33.6404	-161.783	-7.6836	-54.6258	-156.365	-6.27722	-81.486	-138.976	0.626482	-28.7936	-126.168	25.4181	-17.68	-138.854	17.4248	11.5199	-124.731	-0.573127	-14.9585	-122.654	18.435	0.691352	-138.19	9.50658	23.309	-112.335	-10.2903	-0.243202	-116.324	6.95639	12.7969	-139.019	-0.106403	26.2211	-149.102	-41.5025	5.41183	-160.856	-50.1573	35.034	-177.289	-34.4207	14.1189	
1	0.00833333	-182.569	-4.15543	27.0319	-171.71	20.4401	10.1667	-157.141	28.3732	-5.79492	-135.797	35.6279	-20.976	-162.167	-11.0539	-34.5915	-154.984	-3.28877	-58.3898	-145.628	9.04622	-79.2526	-137.091	3.90562	-28.8586	-127.079	26.7584	-19.2689	-138.76	18.2426	12.521	-119.853	-1.82736	-12.7691	-123.904	20.1958	2.11625	-141.014	6.52761	25.9705	-113.425	-11.0097	0.475013	-118.811	10.4425	17.754	-136.711	1.66224	30.3781	-143.973	-42.0856	10.5589	-157.21	-50.2683	32.8338	-173.838	-34.2343	13.4146	
2	0.0166667	-181.968	-5.63007	29.51	-172.31	18.3928	14.2487	-157.303	32.3936	-7.18072	-140.423	36.9864	-15.9691	-162.13	-2.6279	-38.3126	-150.655	7.54325	-53.7272	-143.949	28.8964	-67.0107	-135.332	2.61045	-26.5612	-127.4	29.3619	-16.1467	-140.309	22.4088	12.5658	-124.099	0.675538	-12.7033	-125.939	22.3777	8.00582	-139.226	6.87111	26.6826	-110.149	-6.56086	1.16323	-117.155	12.008	18.4102	-135.743	0.668319	28.9602	-140.545	-41.5092	9.74564	-154.07	-48.601	32.5182	-170.624	-35.7939	16.0537	
3	0.025	-182.123	-4.51811	24.9216	-170.593	17.7873	13.0756	-157.88	31.5254	-3.12438	-141.592	40.2554	-12.8502	-155.701	3.25758	-34.9249	-147.276	24.8096	-48.5681	-134.701	43.0678	-46.6478	-136.192	5.29351	-24.5727	-127.16	32.4633	-10.7078	-138.823	20.9073	16.0543	-122.071	6.12908	-11.081	-124.585	23.8956	10.1512	-139.038	11.3714	25.9668	-112.989	-5.06316	1.85502	-119.386	15.2363	17.1761	-136.525	1.82836	31.4911	-138.105	-37.6414	7.25025	-147.52	-50.188	31.2229	-168.592	-34.9031	12.3206	
4	0.0333333	-178.028	-9.43298	29.1884	-169.521	17.9179	11.8796	-158.898	33.2356	-1.61293	-139.323	42.4759	-13.2687	-155.26	6.47578	-31.1317	-143.452	28.23	-38.5348	-136.422	53.4157	-29.6074	-133.561	12.5076	-25.32	-129.481	34.5935	-5.88928	-139.476	23.2364	17.9265	-116.021	5.92603	-6.65707	-125.773	24.8919	13.2431	-138.039	5.107	28.1175	-105.854	-1.03287	6.37745	-118.349	15.2841	17.9873	-135.433	-0.053741	32.283	-134.35	-38.9676	7.4791	-148.984	-48.7401	28.4562	-164.263	-35.1183	12.5431	
5	0.0416667	-175.369	-10.3597	25.144	-168.712	14.9773	12.5419	-154.639	29.6322	-3.86872	-137.344	41.5215	-13.1653	-153.675	6.99761	-28.874	-137.508	32.9892	-30.6954	-135.985	53.8698	-18.602	-128.177	10.3221	-21.81	-126.946	33.9922	-6.45285	-136.668	19.366	20.0195	-113.604	5.84163	-5.26248	-122.398	23.0474	16.1344	-134.918	5.62699	29.5069	-105.563	-1.23825	5.59136	-115.643	14.8934	18.575	-131.741	-1.9432	31.7982	-135.339	-39.8362	10.1779	-144.177	-50.7128	31.284	-164.822	-36.1587	13.0646	
6	0.05	-175.978	-11.5415	24.8552	-168.293	15.1795	11.408	-154.627	27.1316	0.749023	-136.612	37.2189	-11.357	-146.229	7.75064	-29.8313	-141.089	29.4653	-31.6854	-133.125	51.1814	-16.7432	-125.467	8.88391	-21.6123	-125.22	31.9826	-8.57495	-137.928	17.5184	20.7516	-116.614	3.13298	-6.90488	-120.555	21.695	13.4592	-137.985	1.2326	28.2538	-101.908	-2.34469	7.18253	-116.284	12.2698	23.5206	-131.053	-4.94564	31.8699	-133.778	-39.5492	11.4163	-141.007	-53.4963	33.2666	-160.331	-41.1131	14.2568	
7	0.0583333	-176.246	-15.6319	28.7372	-168.085	11.9132	13.9669	-154.424	27.7336	-4.48876	-136.231	38.2217	-13.6363	-147.224	2.87579	-31.6873	-139.39	29.7476	-34.25	-131.127	48.1932	-22.6447	-126.264	6.58898	-22.6399	-123.724	29.0099	-8.3964	-141.029	14.0729	18.4344	-115.36	2.28855	-7.80448	-117.853	19.046	14.4475	-133.021	1.63223	28.5458	-100.905	-1.70116	5.81943	-113.299	11.1302	20.2168	-130.553	-9.47049	30.5703	-127.239	-43.7107	12.2502	-138.777	-54.7912	31.6439	-161.373	-43.0581	12.4449	
8	0.0666667	-173.436	-16.8851	26.2986	-165.011	8.93705	11.2372	-152.434	21.3397	-2.82721	-132.319	32.2416	-15.6441	-148.942	-4.37387	-32.5179	-138.902	23.072	-41.6675	-134.933	48.5104	-32.2988	-127.512	0.473453	-23.5907	-122.017	26.2004	-5.89185	-136.997	12.1451	17.3227	-112.635	1.07169	-8.31051	-117.567	17.6313	12.3589	-135.434	-1.86909	26.0687	-99.8892	-8.42852	5.01933	-111.909	9.58179	18.4595	-129.03	-8.93255	31.4588	-128.082	-44.1535	10.5121	-137.641	-57.3474	35.0023	-158.275	-44.4484	14.8293	
9	0.075	-171.643	-21.489	27.5577	-167.808	8.49666	9.94321	-156.908	21.7561	-4.12617	-135.463	28.6145	-13.4322	-149.806	-9.22202	-35.0682	-139.759	8.85544	-47.5318	-133.008	36.2056	-49.4065	-127.881	-0.0678992	-25.7932	-125.509	25.2743	-11.1147	-136.908	11.8145	15.0418	-115.096	0.284555	-10.8415	-116.031	16.7379	10.068	-133.109	-1.76242	26.0442	-103.6	-11.0574	2.64933	-112.88	7.64389	19.5858	-128.85	-9.03081	29.007	-124.397	-47.7601	11.3929	-135.308	-58.6872	31.1186	-158.138	-47.7083	15.0391	
